<svg id="visual" viewBox="0 0 1200 251" width="1200" height="251" xmlns="http://www.w3.org/2000/svg" xmlns:xlink="http://www.w3.org/1999/xlink" version="1.1"><rect x="0" y="0" width="1200" height="251" fill="#078080"></rect><path d="M0 224L13.3 226.2C26.7 228.3 53.3 232.7 80 232.2C106.7 231.7 133.3 226.3 160 222C186.7 217.7 213.3 214.3 240 213.2C266.7 212 293.3 213 320 215.2C346.7 217.3 373.3 220.7 400 224C426.7 227.3 453.3 230.7 480 232.3C506.7 234 533.3 234 560 231.2C586.7 228.3 613.3 222.7 640 223.8C666.7 225 693.3 233 720 236C746.7 239 773.3 237 800 233.7C826.7 230.3 853.3 225.7 880 224.8C906.7 224 933.3 227 960 227.3C986.7 227.7 1013.3 225.3 1040 223C1066.7 220.7 1093.3 218.3 1120 218.5C1146.7 218.7 1173.3 221.3 1186.7 222.7L1200 224L1200 252L1186.7 252C1173.3 252 1146.7 252 1120 252C1093.3 252 1066.7 252 1040 252C1013.3 252 986.7 252 960 252C933.3 252 906.7 252 880 252C853.3 252 826.7 252 800 252C773.3 252 746.7 252 720 252C693.3 252 666.7 252 640 252C613.3 252 586.7 252 560 252C533.3 252 506.7 252 480 252C453.3 252 426.7 252 400 252C373.3 252 346.7 252 320 252C293.3 252 266.7 252 240 252C213.3 252 186.7 252 160 252C133.3 252 106.7 252 80 252C53.3 252 26.7 252 13.3 252L0 252Z" fill="#fff" stroke-linecap="round" stroke-linejoin="miter"></path></svg>