<svg id="visual" viewBox="0 0 940 550" width="940" height="550" xmlns="http://www.w3.org/2000/svg" xmlns:xlink="http://www.w3.org/1999/xlink" version="1.1"><rect x="0" y="0" width="940" height="550" fill="#3c009d"></rect><path d="M0 509L5 504.2C10 499.3 20 489.7 30.2 483.8C40.3 478 50.7 476 60.8 480.5C71 485 81 496 91 500.7C101 505.3 111 503.7 121.2 500.2C131.3 496.7 141.7 491.3 151.8 493.5C162 495.7 172 505.3 182 507.8C192 510.3 202 505.7 212.2 500.2C222.3 494.7 232.7 488.3 242.8 487.8C253 487.3 263 492.7 273 494.2C283 495.7 293 493.3 303.2 492.8C313.3 492.3 323.7 493.7 333.8 497.7C344 501.7 354 508.3 364 511.7C374 515 384 515 394.2 509.7C404.3 504.3 414.7 493.7 424.8 492.3C435 491 445 499 455 503C465 507 475 507 485 504.3C495 501.7 505 496.3 515.2 491.8C525.3 487.3 535.7 483.7 545.8 484.8C556 486 566 492 576 491.2C586 490.3 596 482.7 606.2 481.7C616.3 480.7 626.7 486.3 636.8 489.2C647 492 657 492 667 494.8C677 497.7 687 503.3 697.2 503.5C707.3 503.7 717.7 498.3 727.8 497.5C738 496.7 748 500.3 758 503.5C768 506.7 778 509.3 788.2 509.3C798.3 509.3 808.7 506.7 818.8 506.7C829 506.7 839 509.3 849 511C859 512.7 869 513.3 879.2 509.2C889.3 505 899.7 496 909.8 492.5C920 489 930 491 935 492L940 493L940 551L935 551C930 551 920 551 909.8 551C899.7 551 889.3 551 879.2 551C869 551 859 551 849 551C839 551 829 551 818.8 551C808.7 551 798.3 551 788.2 551C778 551 768 551 758 551C748 551 738 551 727.8 551C717.7 551 707.3 551 697.2 551C687 551 677 551 667 551C657 551 647 551 636.8 551C626.7 551 616.3 551 606.2 551C596 551 586 551 576 551C566 551 556 551 545.8 551C535.7 551 525.3 551 515.2 551C505 551 495 551 485 551C475 551 465 551 455 551C445 551 435 551 424.8 551C414.7 551 404.3 551 394.2 551C384 551 374 551 364 551C354 551 344 551 333.8 551C323.7 551 313.3 551 303.2 551C293 551 283 551 273 551C263 551 253 551 242.8 551C232.7 551 222.3 551 212.2 551C202 551 192 551 182 551C172 551 162 551 151.8 551C141.7 551 131.3 551 121.2 551C111 551 101 551 91 551C81 551 71 551 60.8 551C50.7 551 40.3 551 30.2 551C20 551 10 551 5 551L0 551Z" fill="#fff" stroke-linecap="round" stroke-linejoin="miter"></path></svg>